<svg xmlns="http://www.w3.org/2000/svg" width="360" height="560" viewBox="0 0 360 560">
  <defs>
    <linearGradient id="bg" x1="0" y1="0" x2="1" y2="1">
      <stop offset="0" stop-color="#2b2a23"/>
      <stop offset="1" stop-color="#151612"/>
    </linearGradient>
    <linearGradient id="coat" x1="0" y1="0" x2="0" y2="1">
      <stop offset="0" stop-color="#4a2e2b"/>
      <stop offset="1" stop-color="#171713"/>
    </linearGradient>
  </defs>
  <rect width="360" height="560" rx="28" fill="url(#bg)"/>
  <circle cx="298" cy="86" r="74" fill="#c79b59" opacity=".08"/>
  <circle cx="72" cy="420" r="96" fill="#c79b59" opacity=".05"/>
  <path d="M135 92 Q124 121 130 166 Q142 149 150 134 Q136 120 146 95 Z" fill="#2b1d17"/><path d="M225 92 Q236 121 230 166 Q218 149 210 134 Q224 120 214 95 Z" fill="#2b1d17"/>
  
        <ellipse cx="180" cy="76" rx="78" ry="12" fill="#37291d"/>
        <path d="M130 77 Q138 24 180 24 Q222 24 230 77 Z" fill="#493526"/>
        <path d="M147 55 Q180 64 213 55" fill="none" stroke="#c79b59" stroke-width="5"/>
  <ellipse cx="180" cy="128" rx="48" ry="58" fill="#e2b18c"/>
  <path d="M158 123 Q168 117 176 122" stroke="#3a2a22" stroke-width="4" fill="none" stroke-linecap="round"/>
  <path d="M184 122 Q194 117 203 123" stroke="#3a2a22" stroke-width="4" fill="none" stroke-linecap="round"/>
  <circle cx="169" cy="126" r="3.5" fill="#28251f"/>
  <circle cx="194" cy="126" r="3.5" fill="#28251f"/>
  <path d="M180 131 Q176 145 182 148" stroke="#a16e55" stroke-width="3" fill="none" stroke-linecap="round"/>
  <path d="M166 159 Q180 168 196 158" stroke="#7a3f3c" stroke-width="3" fill="none" stroke-linecap="round"/>
  <path d="M154 181 Q180 193 207 181 L219 232 L143 232 Z" fill="#efe7d8"/>
  <path d="M111 226 Q139 191 158 196 L180 235 L201 196 Q224 190 251 226 L284 463 Q234 500 180 500 Q125 500 75 463 Z" fill="url(#coat)"/>
  <path d="M158 199 L180 236 L202 199" fill="#efe7d8" stroke="#c79b59" stroke-width="3"/>
  <path d="M180 236 V463" stroke="#0f0f0d" stroke-width="5" opacity=".7"/>
  <path d="M91 301 Q62 354 77 440" stroke="#4a2e2b" stroke-width="35" fill="none" stroke-linecap="round"/>
  <path d="M269 301 Q299 355 282 440" stroke="#4a2e2b" stroke-width="35" fill="none" stroke-linecap="round"/>
  <path d="M76 438 q16 18 33 -1" stroke="#e2b18c" stroke-width="18" fill="none" stroke-linecap="round"/>
  <path d="M282 438 q-16 18 -33 -1" stroke="#e2b18c" stroke-width="18" fill="none" stroke-linecap="round"/>
  <rect x="24" y="488" width="312" height="48" rx="14" fill="#10110e" opacity=".86"/>
  <text x="180" y="509" text-anchor="middle" fill="#f3eee2" font-family="Georgia,serif" font-size="20" font-weight="700">Eleanor Rivers</text>
  <text x="180" y="527" text-anchor="middle" fill="#bdb6a8" font-family="Arial,sans-serif" font-size="11">Owner of Riverview Stables</text>
</svg>